<!-- Admin Icon -->
<svg xmlns="http://www.w3.org/2000/svg" viewBox="0 0 24 24" fill="none" stroke="#2c3e50" stroke-width="2" stroke-linecap="round" stroke-linejoin="round">
    <path d="M20 21v-2a4 4 0 0 0-4-4H8a4 4 0 0 0-4 4v2"></path>
    <circle cx="12" cy="7" r="4"></circle>
</svg>

<!-- User Icon -->
<svg xmlns="http://www.w3.org/2000/svg" viewBox="0 0 24 24" fill="none" stroke="#3498db" stroke-width="2" stroke-linecap="round" stroke-linejoin="round">
    <path d="M16 21v-2a4 4 0 0 0-4-4H5a4 4 0 0 0-4 4v2"></path>
    <circle cx="8.5" cy="7" r="4"></circle>
    <path d="M20 8v6"></path>
    <path d="M23 11h-6"></path>
</svg>

<!-- Consultant Icon -->
<svg xmlns="http://www.w3.org/2000/svg" viewBox="0 0 24 24" fill="none" stroke="#2ecc71" stroke-width="2" stroke-linecap="round" stroke-linejoin="round">
    <path d="M14 19a6 6 0 0 0-6-6"></path>
    <circle cx="12" cy="12" r="10"></circle>
    <path d="M4.6 11h14.8"></path>
    <path d="M11 3a17 17 0 0 0 0 18"></path>
</svg>

<!-- Receptionist Icon -->
<svg xmlns="http://www.w3.org/2000/svg" viewBox="0 0 24 24" fill="none" stroke="#e74c3c" stroke-width="2" stroke-linecap="round" stroke-linejoin="round">
    <rect x="3" y="3" width="18" height="18" rx="2" ry="2"></rect>
    <path d="M9 3v18"></path>
    <path d="M15 3v18"></path>
    <path d="M3 9h18"></path>
    <path d="M3 15h18"></path>
</svg>

<!-- Cashier Icon -->
<svg xmlns="http://www.w3.org/2000/svg" viewBox="0 0 24 24" fill="none" stroke="#9b59b6" stroke-width="2" stroke-linecap="round" stroke-linejoin="round">
    <rect x="1" y="4" width="22" height="16" rx="2" ry="2"></rect>
    <line x1="1" y1="10" x2="23" y2="10"></line>
    <path d="M7 20h10"></path>
    <line x1="12" y1="14" x2="12" y2="16"></line>
</svg>

<!-- Pharmacist Icon -->
<svg xmlns="http://www.w3.org/2000/svg" viewBox="0 0 24 24" fill="none" stroke="#f39c12" stroke-width="2" stroke-linecap="round" stroke-linejoin="round">
    <path d="M10.5 20.5l10-10a5.121 5.121 0 0 0-7.22-7.2L3 13.5V20h6.5z"></path>
    <path d="M13.5 3.5L20 10"></path>
    <path d="M12 7l-5 5"></path>
</svg>

<!-- Inventory Icon -->
<svg xmlns="http://www.w3.org/2000/svg" viewBox="0 0 24 24" fill="none" stroke="#1abc9c" stroke-width="2" stroke-linecap="round" stroke-linejoin="round">
    <rect x="3" y="3" width="18" height="18" rx="2" ry="2"></rect>
    <line x1="3" y1="9" x2="21" y2="9"></line>
    <line x1="9" y1="21" x2="9" y2="9"></line>
    <line x1="15" y1="21" x2="15" y2="9"></line>
</svg>

<!-- Exit Icon -->
<svg xmlns="http://www.w3.org/2000/svg" viewBox="0 0 24 24" fill="none" stroke="#e74c3c" stroke-width="2" stroke-linecap="round" stroke-linejoin="round">
    <path d="M9 21H5a2 2 0 0 1-2-2V5a2 2 0 0 1 2-2h4"></path>
    <polyline points="16 17 21 12 16 7"></polyline>
    <line x1="21" y1="12" x2="9" y2="12"></line>
</svg>
